<svg
   width="512"
   height="512"
   viewBox="0 0 512 512"
   xmlns="http://www.w3.org/2000/svg">
  <g id="trifolium-logo"
     fill-rule="evenodd">
    <g
       id="static-side">
      <path
         d="m 54.999995,266 c -14.8707,-5.44193 -43.8707,-17.99999 -53.6374801,-54.99999 -10.2332199,-40 19.7667801,-87 73.6804501,-86.57358 25.086325,0.57358 49.086325,16.57358 68.745705,28.36081 C 191.07383,187.46968 244.12929,252.00001 256,266 Z"
         fill="#71cb90"
         id="path1" />
      <path
         d="m 54.999998,266 c -14.870706,5.44193 -43.870706,17.99999 -53.6374814,54.99999 -10.233225,40 19.7667754,87 73.6804514,86.57358 25.086322,-0.57358 49.086322,-16.57358 68.745702,-28.36081 C 191.07383,344.53032 244.12929,279.99999 256,266 Z"
         fill="#4ebc75"
         id="path2" />
      <path
         d="M 256,65.000001 C 250.55807,50.12929 238.00001,21.12929 201.00001,11.362515 c -40,-10.233225 -87,19.766775 -86.57358,73.680455 0.57358,25.08632 16.57358,49.08632 28.36081,68.7457 C 177.46968,201.07383 242.00001,254.12929 256,266 Z"
         fill="#97d8ae"
         id="path3" />
    </g>
    <g
       id="dynamic-side"
       fill="currentColor">
      <path
         id="leaf-6"
         d="m 457,266 c 14.87072,5.44193 43.87072,17.99999 53.63749,54.99999 10.23323,40 -19.76677,87 -73.68045,86.57358 -25.08632,-0.57358 -49.08632,-16.57358 -68.7457,-28.36081 C 320.92618,344.53032 267.87071,279.99999 256,266 Z"
         fill="#22c55e" />
      <path
         id="leaf-5"
         d="m 457,266 c 14.87072,-5.44193 43.87072,-17.99999 53.63749,-54.99999 10.23323,-40 -19.76677,-87 -73.68045,-86.57358 -25.08632,0.57358 -49.08632,16.57358 -68.7457,28.36081 C 320.92618,187.46968 267.87071,252.00001 256,266 Z"
         fill="#4ade80" />
      <path
         id="leaf-4"
         d="m 256,65.000001 c 5.44193,-14.870711 17.99999,-43.870711 54.99999,-53.637486 40,-10.233225 87,19.766775 86.57358,73.680455 -0.57358,25.08632 -16.57358,49.08632 -28.36081,68.7457 C 334.53032,201.07383 269.99999,254.12929 256,266 Z"
         fill="#86efac" />
    </g>
    <g
       id="highlights"
       fill="#ffffff"
       opacity="0.48">
      <path
         d="M 326.22266,9.3789062 C 321.11021,9.4326452 316,10.084128 311,11.363281 c -11.37925,3.003745 -20.44748,7.826438 -27.70703,13.498047 6.45384,-3.323568 13.90428,-6.076449 22.51758,-7.935547 42.53617,-8.8684102 90.83837,20.163631 91.63281,70.951172 0.0645,-0.943071 0.10922,-1.887647 0.13086,-2.833984 C 397.94734,37.868499 362.0098,9.0027336 326.22266,9.3789062 Z"
         id="path4" />
      <path
         d="m 436.95797,124.42632 c -12.80961,0.29288 -25.33719,4.60725 -37.14705,10.32982 3.85276,-0.79523 7.10309,-1.45132 9.6152,-1.9481 46.69436,-8.61333 84.30572,11.63093 99.30417,39.68838 -9.33813,-26.57594 -34.98968,-48.36103 -71.77232,-48.0701 z"
         id="path5" />
      <path
         d="m 454.70232,265.99937 c 0.3629,0.11708 0.71513,0.23458 1.05726,0.35242 27.2585,14.48168 58.17809,46.55436 53.88309,90.3664 3.53343,-11.58859 4.00365,-23.95593 0.9946,-35.71779 -9.76677,-37 -38.76567,-49.5591 -53.63639,-55.00103 z"
         id="path6" />
    </g>
  </g>
</svg>
